<svg xmlns="http://www.w3.org/2000/svg" xmlns:xlink="http://www.w3.org/1999/xlink" width="612.714" height="399.605" viewBox="0 0 612.714 399.605">
  <defs>
    <clipPath id="clip-path">
      <rect id="Rectangle_44832" data-name="Rectangle 44832" width="219.785" height="272.848" fill="none"/>
    </clipPath>
    <clipPath id="clip-path-3">
      <rect id="Rectangle_44824" data-name="Rectangle 44824" width="200.257" height="268.207" fill="none"/>
    </clipPath>
    <clipPath id="clip-path-5">
      <rect id="Rectangle_44842" data-name="Rectangle 44842" width="155.048" height="99.239" fill="#0272b9"/>
    </clipPath>
    <clipPath id="clip-path-10">
      <rect id="Rectangle_44842-2" data-name="Rectangle 44842" width="155.048" height="99.239" fill="#ff6b2a"/>
    </clipPath>
  </defs>
  <g id="Image_Header" data-name="Image Header" transform="translate(311.077 -923.613)">
    <g id="arrow" transform="matrix(0.695, 0.719, -0.719, 0.695, -25.888, 1066.354)">
      <g id="Groupe_27278" data-name="Groupe 27278" transform="translate(87.906 5.72)">
        <path id="Tracé_13149" data-name="Tracé 13149" d="M.756,21.2a4.006,4.006,0,0,0,5.637,5.561,180.1,180.1,0,0,1,24.368-15.6c-1.329,9.8-2.614,19.379-1.513,30.272a5.754,5.754,0,0,0,4.5,4.789c4.5.585,4.864-4.51,4.642-6.711a124.942,124.942,0,0,1,.893-31.5L39.7,5.06a4.006,4.006,0,0,0-1.418-3.634C37.207.542,35.494-.591,33.6.361c-.453.228-11.15,4.521-31.978,19.971A4.007,4.007,0,0,0,.756,21.2Z" transform="translate(0 0)" fill="#71c5ff"/>
      </g>
      <g id="Groupe_27279" data-name="Groupe 27279" transform="translate(0 0)">
        <path id="Tracé_13150" data-name="Tracé 13150" d="M.16,67.805A2.455,2.455,0,0,1,1.6,64.562c.3-.08,19.632-6.834,34.54-18.211-5.567-7.265-8.6-15.65-8.6-23.026,0-8.845,2.958-14.263,5.439-17.251A15.877,15.877,0,0,1,45.013,0,14.784,14.784,0,0,1,56.035,5a22.491,22.491,0,0,1,4.4,17.927c-1.5,8.68-7.165,16.918-15.129,24.358,5.238,4.569,12.021,7.613,21.27,7.277,27.84-1.012,39.639-26.084,45.626-37.393.534-1.008,2.971-1.894,3.379-2.628a3.123,3.123,0,0,1,4.286-1.216,3.211,3.211,0,0,1,1.2,4.343c-.39.7-.839,1.552-1.351,2.517-5.959,11.255-21.79,41.155-53.141,41.155A36.138,36.138,0,0,1,40.807,51.06a97.819,97.819,0,0,1-12.143,7.393A127.663,127.663,0,0,1,3.3,69.106C2.286,69.356.717,69.356.16,67.805ZM45.013,6.378c-7.266,0-11.187,8.732-11.187,16.947A31.772,31.772,0,0,0,40.6,42.277C46.8,36.538,51.647,30,53.055,21.833c.855-4.956-.127-9.713-2.627-12.726A7.012,7.012,0,0,0,45.013,6.378Z" transform="translate(0 0)" fill="#71c5ff"/>
      </g>
    </g>
    <g id="Groupe_51554" data-name="Groupe 51554" transform="translate(-4909.184 3831.217)">
      <g id="Groupe_51556" data-name="Groupe 51556" transform="translate(4598.107 -2907.605)">
        <g id="Groupe_51528" data-name="Groupe 51528" clip-path="url(#clip-path)">
          <g id="Groupe_51525" data-name="Groupe 51525">
            <g id="Groupe_51524" data-name="Groupe 51524" clip-path="url(#clip-path)">
              <g id="Groupe_51523" data-name="Groupe 51523" transform="translate(19.528 4.641)" opacity="0.2">
                <g id="Groupe_51522" data-name="Groupe 51522">
                  <g id="Groupe_51521" data-name="Groupe 51521" clip-path="url(#clip-path-3)">
                    <path id="Tracé_16472" data-name="Tracé 16472" d="M170.643,10.412H55.042A11.236,11.236,0,0,0,43.806,21.648V267.383a11.236,11.236,0,0,0,11.236,11.236H227.861a16.2,16.2,0,0,0,16.2-16.2V80.784Z" transform="translate(-43.806 -10.412)"/>
                  </g>
                </g>
              </g>
            </g>
          </g>
          <path id="Tracé_16473" data-name="Tracé 16473" d="M0,222.665l24.455,26.076V222.665Z" transform="translate(0 -123.406)" fill="#0272b9"/>
          <g id="Groupe_51527" data-name="Groupe 51527">
            <g id="Groupe_51526" data-name="Groupe 51526" clip-path="url(#clip-path)">
              <path id="Tracé_16474" data-name="Tracé 16474" d="M159.039,0H43.438A11.236,11.236,0,0,0,32.2,11.236V256.971a11.236,11.236,0,0,0,11.236,11.236H221.223a11.236,11.236,0,0,0,11.236-11.236V70.372Z" transform="translate(-17.847)" fill="#fff"/>
              <path id="Tracé_16475" data-name="Tracé 16475" d="M316.73,0V59.136a11.236,11.236,0,0,0,11.236,11.236H390.15Z" transform="translate(-175.538)" fill="#ededed"/>
              <path id="Tracé_16476" data-name="Tracé 16476" d="M327.965,143.89a11.236,11.236,0,0,1-11.236-11.236v2.367a11.236,11.236,0,0,0,11.236,11.236h62.184v-2.366Z" transform="translate(-175.538 -73.52)" fill="#dbdbdb"/>
              <path id="Tracé_16477" data-name="Tracé 16477" d="M115.089,143H0V86.681a7.75,7.75,0,0,1,7.749-7.75h107.34a7.75,7.75,0,0,1,7.749,7.75v48.575A7.749,7.749,0,0,1,115.089,143" transform="translate(0 -43.745)" fill="#0272b9"/>
              <path id="Tracé_16497" data-name="Tracé 16497" d="M-17.28-25.272V-8.064a8.134,8.134,0,0,1-2.25,6.156A8.392,8.392,0,0,1-25.6.252,8.974,8.974,0,0,1-32-2.016,8.417,8.417,0,0,1-34.416-8.46h6.12a3.772,3.772,0,0,0,.648,2.394,2.256,2.256,0,0,0,1.872.81,2.144,2.144,0,0,0,1.728-.72,3.141,3.141,0,0,0,.612-2.088V-25.272ZM6.948-17.136A8.138,8.138,0,0,1,5.94-13.122a7.411,7.411,0,0,1-3.1,2.934A10.9,10.9,0,0,1-2.34-9.072H-6.156V0h-6.156V-25.272H-2.34a11.348,11.348,0,0,1,5.112,1.044A7.175,7.175,0,0,1,5.9-21.348,8.371,8.371,0,0,1,6.948-17.136Zm-9.756,3.168A3.672,3.672,0,0,0-.18-14.8a3.088,3.088,0,0,0,.864-2.34,3.088,3.088,0,0,0-.864-2.34A3.672,3.672,0,0,0-2.808-20.3H-6.156v6.336ZM26.928-17.28a4.6,4.6,0,0,0-1.962-1.926,6.42,6.42,0,0,0-3.006-.666,6.185,6.185,0,0,0-4.788,1.962,7.446,7.446,0,0,0-1.8,5.238,7.536,7.536,0,0,0,1.89,5.454,6.884,6.884,0,0,0,5.2,1.962A6.292,6.292,0,0,0,26.3-6.408,6.529,6.529,0,0,0,28.584-9.72H20.772v-4.536H34.164v5.724a12.075,12.075,0,0,1-2.322,4.284,12.251,12.251,0,0,1-4.158,3.2A12.852,12.852,0,0,1,22,.18a13.465,13.465,0,0,1-6.678-1.638,11.667,11.667,0,0,1-4.572-4.554,13.363,13.363,0,0,1-1.638-6.66,13.465,13.465,0,0,1,1.638-6.678A11.667,11.667,0,0,1,15.3-23.922a13.363,13.363,0,0,1,6.66-1.638,12.939,12.939,0,0,1,7.65,2.2,10.363,10.363,0,0,1,4.122,6.084Z" transform="translate(61.077 79.605)" fill="#fff"/>
            </g>
          </g>
        </g>
      </g>
      <g id="Groupe_51555" data-name="Groupe 51555" transform="translate(4636.735 -2771.181)">
        <g id="Groupe_51554-2" data-name="Groupe 51554" clip-path="url(#clip-path-5)">
          <path id="Tracé_16490" data-name="Tracé 16490" d="M148.921,13.666a13.668,13.668,0,1,1,13.667,13.67,13.666,13.666,0,0,1-13.667-13.67" transform="translate(-105.876)" fill="#0272b9"/>
          <path id="Tracé_16491" data-name="Tracé 16491" d="M159.548,189.494l54.466-62.545,54.466,62.545Z" transform="translate(-113.432 -90.255)" fill="#0272b9"/>
          <path id="Tracé_16492" data-name="Tracé 16492" d="M0,226.283,41.441,178.7l41.441,47.588Z" transform="translate(0 -127.044)" fill="#0272b9"/>
        </g>
      </g>
    </g>
    <g id="Groupe_51558" data-name="Groupe 51558" transform="translate(81.853 1050.369)">
      <g id="Groupe_51537" data-name="Groupe 51537" clip-path="url(#clip-path)">
        <g id="Groupe_51534" data-name="Groupe 51534">
          <g id="Groupe_51533" data-name="Groupe 51533" clip-path="url(#clip-path)">
            <g id="Groupe_51532" data-name="Groupe 51532" transform="translate(19.528 4.641)" opacity="0.2">
              <g id="Groupe_51531" data-name="Groupe 51531">
                <g id="Groupe_51530" data-name="Groupe 51530" clip-path="url(#clip-path-3)">
                  <path id="Tracé_16481" data-name="Tracé 16481" d="M170.643,10.412H55.042A11.236,11.236,0,0,0,43.806,21.648V267.383a11.236,11.236,0,0,0,11.236,11.236H227.861a16.2,16.2,0,0,0,16.2-16.2V80.784Z" transform="translate(-43.806 -10.412)"/>
                </g>
              </g>
            </g>
          </g>
        </g>
        <path id="Tracé_16482" data-name="Tracé 16482" d="M0,222.665l24.455,26.076V222.665Z" transform="translate(0 -123.406)" fill="#ff6b2a"/>
        <g id="Groupe_51536" data-name="Groupe 51536">
          <g id="Groupe_51535" data-name="Groupe 51535" clip-path="url(#clip-path)">
            <path id="Tracé_16483" data-name="Tracé 16483" d="M159.039,0H43.438A11.236,11.236,0,0,0,32.2,11.236V256.971a11.236,11.236,0,0,0,11.236,11.236H221.223a11.236,11.236,0,0,0,11.236-11.236V70.372Z" transform="translate(-17.847)" fill="#fff"/>
            <path id="Tracé_16484" data-name="Tracé 16484" d="M316.73,0V59.136a11.236,11.236,0,0,0,11.236,11.236H390.15Z" transform="translate(-175.538)" fill="#ededed"/>
            <path id="Tracé_16485" data-name="Tracé 16485" d="M327.965,143.89a11.236,11.236,0,0,1-11.236-11.236v2.367a11.236,11.236,0,0,0,11.236,11.236h62.184v-2.366Z" transform="translate(-175.538 -73.52)" fill="#dbdbdb"/>
            <path id="Tracé_16486" data-name="Tracé 16486" d="M115.089,143H0V86.681a7.75,7.75,0,0,1,7.749-7.75h107.34a7.75,7.75,0,0,1,7.749,7.75v48.575A7.749,7.749,0,0,1,115.089,143" transform="translate(0 -43.745)" fill="#ff6b2a"/>
            <g id="Groupe_51559" data-name="Groupe 51559" transform="translate(38.628 136.424)">
              <g id="Groupe_51554-3" data-name="Groupe 51554" clip-path="url(#clip-path-10)">
                <path id="Tracé_16490-2" data-name="Tracé 16490" d="M148.921,13.666a13.668,13.668,0,1,1,13.667,13.67,13.666,13.666,0,0,1-13.667-13.67" transform="translate(-105.876)" fill="#ff6b2a"/>
                <path id="Tracé_16491-2" data-name="Tracé 16491" d="M159.548,189.494l54.466-62.545,54.466,62.545Z" transform="translate(-113.432 -90.255)" fill="#ff6b2a"/>
                <path id="Tracé_16492-2" data-name="Tracé 16492" d="M0,226.283,41.441,178.7l41.441,47.588Z" transform="translate(0 -127.044)" fill="#ff6b2a"/>
              </g>
            </g>
            <path id="Tracé_16498" data-name="Tracé 16498" d="M-12.672-17.136a8.138,8.138,0,0,1-1.008,4.014,7.411,7.411,0,0,1-3.1,2.934A10.9,10.9,0,0,1-21.96-9.072h-3.816V0h-6.156V-25.272h9.972a11.348,11.348,0,0,1,5.112,1.044,7.175,7.175,0,0,1,3.132,2.88A8.371,8.371,0,0,1-12.672-17.136Zm-9.756,3.168A3.672,3.672,0,0,0-19.8-14.8a3.088,3.088,0,0,0,.864-2.34,3.088,3.088,0,0,0-.864-2.34,3.672,3.672,0,0,0-2.628-.828h-3.348v6.336ZM0-25.272a14.7,14.7,0,0,1,6.984,1.584,11.316,11.316,0,0,1,4.626,4.446,13.063,13.063,0,0,1,1.638,6.606A13.09,13.09,0,0,1,11.61-6.048,11.257,11.257,0,0,1,6.966-1.584,14.727,14.727,0,0,1,0,0H-9.468V-25.272ZM-.4-5.328A7.43,7.43,0,0,0,5.04-7.236a7.224,7.224,0,0,0,1.944-5.4A7.349,7.349,0,0,0,5.04-18.072,7.349,7.349,0,0,0-.4-20.016H-3.312V-5.328ZM33.156-25.272v4.932H22.86v5.328h7.7v4.788h-7.7V0H16.7V-25.272Z" transform="translate(61.147 79.848)" fill="#fff"/>
          </g>
        </g>
      </g>
    </g>
  </g>
</svg>
